<svg xmlns="http://www.w3.org/2000/svg" viewBox="-10 -10 4646 758" style="color:#0F224F"><g fill="currentColor"><path transform="translate(-39.6,727.5) scale(0.4883,-0.4883)" d="M628 -22Q459 -22 336.5 50.5Q214 123 147.5 252.5Q81 382 81 554Q81 728 147.5 857.5Q214 987 336.5 1059.5Q459 1132 628 1132Q727 1132 811.0 1106.0Q895 1080 960.0 1032.0Q1025 984 1067.0 915.0Q1109 846 1125 760L846 708Q837 752 818.0 786.5Q799 821 772.0 845.5Q745 870 709.5 883.0Q674 896 631 896Q551 896 496.5 853.0Q442 810 414.5 733.0Q387 656 387 555Q387 456 414.5 379.0Q442 302 496.5 258.0Q551 214 631 214Q674 214 710.0 227.5Q746 241 774.0 266.5Q802 292 821.0 328.0Q840 364 848 409L1127 358Q1111 269 1069.0 199.5Q1027 130 962.0 80.0Q897 30 812.5 4.0Q728 -22 628 -22Z"/><path transform="translate(533.8,727.5) scale(0.4883,-0.4883)" d="M128 0V1118H418V923H430Q461 1027 533.5 1080.0Q606 1133 700 1133Q723 1133 750.0 1130.5Q777 1128 797 1123V855Q777 862 739.0 866.0Q701 870 667 870Q599 870 544.0 840.5Q489 811 458.5 758.5Q428 706 428 636V0Z"/><path transform="translate(926.1,727.5) scale(0.4883,-0.4883)" d="M633 -22Q462 -22 338.0 48.0Q214 118 147.5 247.0Q81 376 81 553Q81 726 147.0 856.0Q213 986 334.0 1059.0Q455 1132 618 1132Q728 1132 823.0 1097.0Q918 1062 990.0 991.5Q1062 921 1102.5 815.0Q1143 709 1143 565V481H378Q381 396 411 336Q443 270 501.5 237.0Q560 204 638 204Q691 204 734.0 219.0Q777 234 807.5 263.5Q838 293 854 336L1126 285Q1099 193 1032.0 123.5Q965 54 864.5 16.0Q764 -22 633 -22ZM380 669H854Q848 725 830 771Q803 835 750.5 870.5Q698 906 621 906Q543 906 488.5 870.0Q434 834 406 773Q385 726 380 669Z"/><path transform="translate(1506.8,727.5) scale(0.4883,-0.4883)" d="M361 0 31 1118H346L443 705Q468 594 497 464Q517 375 534 275Q552 373 573 461Q604 592 631 705L733 1118H1009L1109 705Q1134 592 1165 462Q1186 373 1205 274Q1222 373 1241 461Q1268 591 1294 705L1391 1118H1710L1378 0H1073L949 431Q931 496 913.0 574.5Q895 653 878 735Q874 754 870 773Q866 754 862 735Q844 653 826.0 574.0Q808 495 790 431L666 0Z"/><path transform="translate(2341.9,727.5) scale(0.4883,-0.4883)" d="M754 -19Q663 -19 600.0 12.0Q537 43 497.5 88.5Q458 134 437 179H423V0H128V1490H428V930H437Q458 974 496.5 1021.0Q535 1068 598.0 1100.0Q661 1132 756 1132Q880 1132 983.0 1068.0Q1086 1004 1147.5 876.0Q1209 748 1209 557Q1209 371 1149.0 242.5Q1089 114 986.0 47.5Q883 -19 754 -19ZM662 222Q740 222 793.5 265.0Q847 308 874.5 384.0Q902 460 902 558Q902 656 874.5 731.0Q847 806 794.0 849.0Q741 892 662 892Q585 892 531.0 850.5Q477 809 449.0 734.5Q421 660 421 558Q421 457 449.5 381.5Q478 306 532.0 264.0Q586 222 662 222Z"/><path transform="translate(2957.2,727.5) scale(0.4883,-0.4883)" d="M440 -22Q334 -22 249.5 15.5Q165 53 116.5 127.5Q68 202 68 313Q68 406 102.5 469.0Q137 532 196.5 570.0Q256 608 331.5 628.0Q407 648 490 656Q587 666 646.5 674.5Q706 683 733.5 701.5Q761 720 761 756V761Q761 809 741.0 842.0Q721 875 681.5 892.5Q642 910 586 910Q528 910 485.0 892.5Q442 875 415.0 846.0Q388 817 375 781L100 826Q129 924 196.0 992.0Q263 1060 362.5 1096.0Q462 1132 587 1132Q677 1132 762.0 1110.5Q847 1089 914.5 1044.0Q982 999 1021.5 926.5Q1061 854 1061 753V0H777V155H767Q740 103 695.0 63.5Q650 24 586.5 1.0Q523 -22 440 -22ZM525 189Q596 189 649.5 217.0Q703 245 733.0 293.0Q763 341 763 400V521Q750 511 723.0 503.0Q696 495 663.0 489.0Q630 483 598.0 478.0Q566 473 541 470Q486 462 444.0 444.0Q402 426 379.0 396.5Q356 367 356 321Q356 278 378.0 248.5Q400 219 438.0 204.0Q476 189 525 189Z"/><path transform="translate(3522.8,727.5) scale(0.4883,-0.4883)" d="M572 -22Q437 -22 333.0 16.5Q229 55 163.0 128.5Q97 202 78 306L357 354Q379 276 434.0 237.0Q489 198 581 198Q667 198 716.5 230.5Q766 263 766 313Q766 357 730.5 385.0Q695 413 622 428L429 468Q267 501 187.0 580.5Q107 660 107 785Q107 893 166.0 970.5Q225 1048 330.0 1090.0Q435 1132 577 1132Q709 1132 806.0 1095.5Q903 1059 963.0 992.0Q1023 925 1043 834L777 787Q760 844 711.5 880.5Q663 917 581 917Q507 917 457.0 886.0Q407 855 407 803Q407 761 439.5 732.0Q472 703 551 687L752 647Q914 614 993.0 539.5Q1072 465 1072 345Q1072 235 1008.0 152.5Q944 70 831.5 24.0Q719 -22 572 -22Z"/><path transform="translate(4067.9,727.5) scale(0.4883,-0.4883)" d="M633 -22Q462 -22 338.0 48.0Q214 118 147.5 247.0Q81 376 81 553Q81 726 147.0 856.0Q213 986 334.0 1059.0Q455 1132 618 1132Q728 1132 823.0 1097.0Q918 1062 990.0 991.5Q1062 921 1102.5 815.0Q1143 709 1143 565V481H378Q381 396 411 336Q443 270 501.5 237.0Q560 204 638 204Q691 204 734.0 219.0Q777 234 807.5 263.5Q838 293 854 336L1126 285Q1099 193 1032.0 123.5Q965 54 864.5 16.0Q764 -22 633 -22ZM380 669H854Q848 725 830 771Q803 835 750.5 870.5Q698 906 621 906Q543 906 488.5 870.0Q434 834 406 773Q385 726 380 669Z"/></g></svg>