<svg xmlns="http://www.w3.org/2000/svg" viewBox="12 8 372 88" style="color:#000">
<g stroke="currentColor" stroke-width="7" fill="none" stroke-linecap="round" stroke-linejoin="round">
<path d="M58 84 H24 V48 L50 22 L76 48 V61"/>
</g>
<path d="M72.5 57 L79.5 57 L79.5 62 L76 74 L72.5 62 Z" fill="currentColor"/><g transform="translate(104,33.8) scale(0.06542)"><g fill="currentColor"><path transform="translate(-39.6,727.5) scale(0.4883,-0.4883)" d="M628 -22Q459 -22 336.5 50.5Q214 123 147.5 252.5Q81 382 81 554Q81 728 147.5 857.5Q214 987 336.5 1059.5Q459 1132 628 1132Q727 1132 811.0 1106.0Q895 1080 960.0 1032.0Q1025 984 1067.0 915.0Q1109 846 1125 760L846 708Q837 752 818.0 786.5Q799 821 772.0 845.5Q745 870 709.5 883.0Q674 896 631 896Q551 896 496.5 853.0Q442 810 414.5 733.0Q387 656 387 555Q387 456 414.5 379.0Q442 302 496.5 258.0Q551 214 631 214Q674 214 710.0 227.5Q746 241 774.0 266.5Q802 292 821.0 328.0Q840 364 848 409L1127 358Q1111 269 1069.0 199.5Q1027 130 962.0 80.0Q897 30 812.5 4.0Q728 -22 628 -22Z"/><path transform="translate(533.8,727.5) scale(0.4883,-0.4883)" d="M128 0V1118H418V923H430Q461 1027 533.5 1080.0Q606 1133 700 1133Q723 1133 750.0 1130.5Q777 1128 797 1123V855Q777 862 739.0 866.0Q701 870 667 870Q599 870 544.0 840.5Q489 811 458.5 758.5Q428 706 428 636V0Z"/><path transform="translate(926.1,727.5) scale(0.4883,-0.4883)" d="M633 -22Q462 -22 338.0 48.0Q214 118 147.5 247.0Q81 376 81 553Q81 726 147.0 856.0Q213 986 334.0 1059.0Q455 1132 618 1132Q728 1132 823.0 1097.0Q918 1062 990.0 991.5Q1062 921 1102.5 815.0Q1143 709 1143 565V481H378Q381 396 411 336Q443 270 501.5 237.0Q560 204 638 204Q691 204 734.0 219.0Q777 234 807.5 263.5Q838 293 854 336L1126 285Q1099 193 1032.0 123.5Q965 54 864.5 16.0Q764 -22 633 -22ZM380 669H854Q848 725 830 771Q803 835 750.5 870.5Q698 906 621 906Q543 906 488.5 870.0Q434 834 406 773Q385 726 380 669Z"/><path transform="translate(1506.8,727.5) scale(0.4883,-0.4883)" d="M361 0 31 1118H346L443 705Q468 594 497 464Q517 375 534 275Q552 373 573 461Q604 592 631 705L733 1118H1009L1109 705Q1134 592 1165 462Q1186 373 1205 274Q1222 373 1241 461Q1268 591 1294 705L1391 1118H1710L1378 0H1073L949 431Q931 496 913.0 574.5Q895 653 878 735Q874 754 870 773Q866 754 862 735Q844 653 826.0 574.0Q808 495 790 431L666 0Z"/><path transform="translate(2341.9,727.5) scale(0.4883,-0.4883)" d="M754 -19Q663 -19 600.0 12.0Q537 43 497.5 88.5Q458 134 437 179H423V0H128V1490H428V930H437Q458 974 496.5 1021.0Q535 1068 598.0 1100.0Q661 1132 756 1132Q880 1132 983.0 1068.0Q1086 1004 1147.5 876.0Q1209 748 1209 557Q1209 371 1149.0 242.5Q1089 114 986.0 47.5Q883 -19 754 -19ZM662 222Q740 222 793.5 265.0Q847 308 874.5 384.0Q902 460 902 558Q902 656 874.5 731.0Q847 806 794.0 849.0Q741 892 662 892Q585 892 531.0 850.5Q477 809 449.0 734.5Q421 660 421 558Q421 457 449.5 381.5Q478 306 532.0 264.0Q586 222 662 222Z"/><path transform="translate(2957.2,727.5) scale(0.4883,-0.4883)" d="M428 647V0H128V1118H411L415 887Q458 993 532 1056Q621 1132 763 1132Q879 1132 965.5 1081.5Q1052 1031 1099.5 936.5Q1147 842 1147 711V0H847V659Q847 763 793.5 822.0Q740 881 645 881Q582 881 532.5 853.5Q483 826 455.5 774.0Q428 722 428 647Z"/><path transform="translate(3564.8,727.5) scale(0.4883,-0.4883)" d="M754 -19Q663 -19 600.0 12.0Q537 43 497.5 88.5Q458 134 437 179H423V0H128V1490H428V930H437Q458 974 496.5 1021.0Q535 1068 598.0 1100.0Q661 1132 756 1132Q880 1132 983.0 1068.0Q1086 1004 1147.5 876.0Q1209 748 1209 557Q1209 371 1149.0 242.5Q1089 114 986.0 47.5Q883 -19 754 -19ZM662 222Q740 222 793.5 265.0Q847 308 874.5 384.0Q902 460 902 558Q902 656 874.5 731.0Q847 806 794.0 849.0Q741 892 662 892Q585 892 531.0 850.5Q477 809 449.0 734.5Q421 660 421 558Q421 457 449.5 381.5Q478 306 532.0 264.0Q586 222 662 222Z"/></g></g></svg>